<svg xmlns="http://www.w3.org/2000/svg" xmlns:xlink="http://www.w3.org/1999/xlink" version="1.1" x="0px" y="0px" viewBox="0 0 512 640" enable-background="new 0 0 512 512" xml:space="preserve"><path d="M495.9,121.3h-89.4V74.1c0-4.7-2.3-9.1-6.2-11.7L314,4.4c-6.5-4.3-15.2-2.6-19.6,3.8c-4.4,6.5-2.6,15.2,3.8,19.6l80,53.8  v39.7h-89.4c-7.8,0-14.1,6.3-14.1,14.1v182.8c-25.8-32.9-65.8-53.7-109.4-53.7c-61.2,0-115.6,41.2-133,99.2  C14.9,368.4,2,384.4,2,403.4c0,19,12.9,34.9,30.3,39.7c3.4,11.4,14,66.9,76.8,66.9h112.4c23.5,0,45.5-11.3,59-29.7  c8.9,17.6,27.2,29.7,48.2,29.7h127.1c29.8,0,54.1-24.3,54.1-54.1V135.4C510,127.6,503.7,121.3,495.9,121.3z M302.9,149.5h75.3v86.8  h-75.3V149.5z M165.3,292.7c45.4,0,86,28.3,102.6,69.5H62.7C79.3,321,120,292.7,165.3,292.7z M221.5,481.8H109.1  c-33.6,0-44.2-31.6-46.4-37.2H268C265.7,450.2,251,481.8,221.5,481.8z M288.8,416.2l-245.6,0.1c-7.2,0-13-5.8-13-13  c0-7.2,5.8-13,13-13h244.2c7.2,0,13,5.8,13,13C300.4,410.1,295.3,415.5,288.8,416.2z M481.8,455.9c0,14.3-11.6,25.9-25.9,25.9H328.8  c-14.3,0-25.9-11.6-25.9-25.9v-14.4c15.1-6.1,25.7-20.9,25.7-38.2c0-17.2-10.7-32-25.7-38.2V264.6h178.9V455.9z M481.8,236.4h-75.3  v-86.8h75.3V236.4z"/><text x="0" y="527" fill="#000000" font-size="5px" font-weight="bold" font-family="'Helvetica Neue', Helvetica, Arial-Unicode, Arial, Sans-serif">Created by Icon Fair</text><text x="0" y="532" fill="#000000" font-size="5px" font-weight="bold" font-family="'Helvetica Neue', Helvetica, Arial-Unicode, Arial, Sans-serif">from the Noun Project</text></svg>